<?xml version="1.0" standalone="no"?>
<!DOCTYPE svg PUBLIC "-//W3C//DTD SVG 1.0//EN" "http://www.w3.org/TR/2001/REC-SVG-20010904/DTD/svg10.dtd">
<svg xmlns="http://www.w3.org/2000/svg" xmlns:xlink="http://www.w3.org/1999/xlink" id="body_1" width="8" height="7">

<defs>
    <clipPath  id="1">

    <path id=""  clip-rule="evenodd" transform="matrix(1 0 0 1 0 0)"  d="M6 -0.25L6 5L6 5L0 5L0 5L0 -0.25L0 -0.25L6 -0.25z" />    </clipPath>
</defs>

<g transform="matrix(1.3333 0 0 1.3333 0 0)">
	<g clip-path="url(#1)" >
    <path id=""  transform="matrix(1 0 0 -1 0 5)"  d="M3.6312752 4.26594C 3.33615 4.7259903 2.6638498 4.7259903 2.3687248 4.26594L2.3687248 4.26594L0.49331284 1.3424625C 0.17309284 0.8432925 0.5315399 0.1875 1.1245875 0.1875L1.1245875 0.1875L1.1245875 0.1875L1.1245875 0.1875L4.8754125 0.1875L4.8754125 0.1875L4.8754125 0.1875C 5.468463 0.1875 5.826904 0.8432925 5.5066867 1.3424625L5.5066867 1.3424625L3.6312752 4.26594z" stroke="#FFFFFF" stroke-width="1" fill="#A09999" fill-rule="nonzero" />
	</g>
</g>
</svg>