<svg width="134" height="22" viewBox="0 0 134 22" fill="none" xmlns="http://www.w3.org/2000/svg">
<path fill-rule="evenodd" clip-rule="evenodd" d="M3.78345 3.75858H18.287V0H3.78345V3.75858Z" fill="white"/>
<path fill-rule="evenodd" clip-rule="evenodd" d="M3.78345 21.925H18.287V18.1664H3.78345V21.925Z" fill="white"/>
<path fill-rule="evenodd" clip-rule="evenodd" d="M0 18.1665H3.78352V3.75867H0V18.1665Z" fill="white"/>
<path fill-rule="evenodd" clip-rule="evenodd" d="M18.2871 18.1665H22.0707V3.75867H18.2871V18.1665Z" fill="white"/>
<path fill-rule="evenodd" clip-rule="evenodd" d="M51.3928 18.1665H55.0189V6.93177H62.2707V18.1665H65.8965V3.75867H51.3928V18.1665Z" fill="white"/>
<path fill-rule="evenodd" clip-rule="evenodd" d="M101.84 6.93463H107.58V18.1665H111.234V6.93463H116.974V3.75867H101.84V6.93463Z" fill="white"/>
<path fill-rule="evenodd" clip-rule="evenodd" d="M70.5963 14.5646H68.4189V18.1665H69.5681C72.3486 18.1665 73.9431 16.5753 73.9431 13.8011V6.93177H80.2581V18.1665H83.8683V3.75867H70.5963V14.5646Z" fill="white"/>
<path fill-rule="evenodd" clip-rule="evenodd" d="M122.687 13.8922H122.511V3.75867H118.866V18.1665H123.766L130.181 8.03328H130.354V18.1665H134V3.75867H129.102L122.687 13.8922Z" fill="white"/>
<path fill-rule="evenodd" clip-rule="evenodd" d="M92.1419 12.1847L94.4641 6.89738H94.7129L97.0351 12.1847H92.1419ZM92.2321 3.75867L85.7603 18.1665H89.5146L90.7479 15.3577H98.4291L99.6629 18.1665H103.417L96.9449 3.75867H92.2321Z" fill="white"/>
<path fill-rule="evenodd" clip-rule="evenodd" d="M40.1998 15.1844C36.8585 15.1844 35.2244 13.4222 35.2244 10.806C35.2244 8.17934 36.899 6.42753 40.1998 6.42753C43.5047 6.42753 45.1753 8.17934 45.1753 10.806C45.1753 13.4423 43.5661 15.1844 40.1998 15.1844ZM40.1998 3.1322C34.8692 3.1322 31.5293 6.00998 31.5293 10.806C31.5293 15.6423 34.91 18.4797 40.1998 18.4797C45.6953 18.4797 48.8706 15.4387 48.8706 10.806C48.8706 6.23402 45.6953 3.1322 40.1998 3.1322Z" fill="white"/>
</svg>
