<svg width="18" height="13" viewBox="0 0 18 13" fill="none" xmlns="http://www.w3.org/2000/svg">
<path d="M8.72294 12.8907L0.114273 4.71951C0.0414903 4.65043 -1.99153e-07 4.5561 -1.94834e-07 4.45728L-1.62498e-08 0.371751C-9.69125e-09 0.22171 0.0954904 0.085771 0.241826 0.028561C0.388161 -0.0286489 0.555664 0.00331624 0.66836 0.108787L9.00002 8.01777L17.3316 0.108788C17.4436 0.00255092 17.6118 -0.0293794 17.7582 0.0285618C17.9045 0.086503 18 0.221711 18 0.371752L18 4.45728C18 4.55606 17.9585 4.65043 17.8857 4.72024L9.27702 12.8915C9.12365 13.0363 8.87635 13.0363 8.72294 12.8907Z" fill="white"/>
</svg>
