<svg width="16" height="14" viewBox="0 0 16 14" fill="none" xmlns="http://www.w3.org/2000/svg">
<path d="M15.9776 7.78339C15.9775 7.78332 15.9775 7.78328 15.9775 7.7832L12.9566 0.198056C12.8925 0.0368914 12.7098 -0.0417868 12.5487 0.0223257C12.5485 0.022365 12.5484 0.0224042 12.5483 0.0224828L0.293041 4.90241C0.243062 4.92401 0.199719 4.95848 0.167407 5.00229C0.0654866 5.05526 0.0010993 5.16008 0 5.27492V13.4411C0 13.6146 0.140631 13.7552 0.314085 13.7552H13.5056C13.6791 13.7552 13.8197 13.6146 13.8197 13.4411V8.98112L15.8022 8.19151C15.9633 8.12724 16.0418 7.94452 15.9776 7.78339ZM13.1916 13.127H0.628169V5.589H13.1916V13.127ZM5.2405 4.9624L10.4995 2.86683C10.9689 3.36018 11.6192 3.64058 12.3002 3.64325L12.8247 4.9624H5.2405ZM13.8197 8.30646V5.27492C13.8197 5.10147 13.6791 4.96083 13.5056 4.96083H13.5006L12.8351 3.28928C12.8277 3.27534 12.8191 3.26207 12.8093 3.2497C12.7756 3.09843 12.6355 2.99521 12.4811 3.00786C11.8475 3.06561 11.2277 2.79872 10.8343 2.29865C10.7365 2.17785 10.5644 2.14781 10.4314 2.2283C10.4165 2.23007 10.4017 2.23281 10.3871 2.23646L3.96657 4.79311C3.88888 4.82358 3.82673 4.884 3.79414 4.96083H1.8443L12.4893 0.722263L15.278 7.72478L13.8197 8.30646Z" fill="#594E4B"/>
<path d="M1.48085 11.0072C2.09064 11.1875 2.56782 11.6641 2.74881 12.2736C2.7885 12.4067 2.91087 12.4979 3.0497 12.4979C3.06599 12.4969 3.08217 12.4944 3.09807 12.4907C3.11216 12.4947 3.12657 12.4976 3.1411 12.4995H10.6791C10.6921 12.4978 10.7049 12.4951 10.7174 12.4916C10.8744 12.5298 11.0325 12.4335 11.0707 12.2766C11.0708 12.276 11.071 12.2755 11.0711 12.2749C11.2516 11.6647 11.7289 11.1875 12.3391 11.0069C12.487 10.9617 12.579 10.8142 12.5545 10.6614C12.5587 10.6462 12.5618 10.6307 12.5636 10.615V8.10228C12.5618 8.08654 12.5586 8.07099 12.5542 8.0558C12.5788 7.90295 12.4868 7.75541 12.3388 7.7103C11.7286 7.52982 11.2514 7.05237 11.0714 6.44203C11.026 6.29304 10.877 6.20085 10.7234 6.22657C10.7089 6.22252 10.6941 6.21958 10.6791 6.21777H3.1411C3.12528 6.21966 3.10961 6.2228 3.0943 6.2272C2.94154 6.20285 2.79415 6.29476 2.74881 6.44266C2.56817 7.05273 2.09096 7.52982 1.48085 7.7103C1.33288 7.75553 1.24093 7.90299 1.26539 8.0558C1.2613 8.07107 1.25836 8.08658 1.25659 8.10228V10.615C1.2584 10.6297 1.26134 10.6443 1.26539 10.6586C1.23963 10.8124 1.33178 10.9615 1.48085 11.0072ZM1.88476 8.2298C2.51544 7.97649 3.01531 7.47662 3.26862 6.84594H10.5513C10.8047 7.47662 11.3047 7.97649 11.9355 8.2298V10.4874C11.305 10.741 10.8052 11.2408 10.5516 11.8713H3.26862C3.01503 11.2408 2.51525 10.741 1.88476 10.4874V8.2298Z" fill="#594E4B"/>
<path d="M6.91014 11.2417C7.95094 11.2417 8.79465 10.398 8.79465 9.35716C8.79465 8.31637 7.95094 7.47266 6.91014 7.47266C5.86934 7.47266 5.02563 8.31637 5.02563 9.35716C5.02666 10.3975 5.86978 11.2407 6.91014 11.2417ZM6.91014 8.10083C7.60399 8.10083 8.16648 8.66331 8.16648 9.35716C8.16648 10.051 7.60399 10.6135 6.91014 10.6135C6.21629 10.6135 5.6538 10.051 5.6538 9.35716C5.6538 8.66331 6.21629 8.10083 6.91014 8.10083Z" fill="#594E4B"/>
<path d="M3.45501 9.82995C3.71519 9.82995 3.92614 9.619 3.92614 9.35882C3.92614 9.09864 3.71519 8.8877 3.45501 8.8877C3.19483 8.8877 2.98389 9.09864 2.98389 9.35882C2.98389 9.61904 3.19483 9.82995 3.45501 9.82995ZM3.45501 9.20178C3.54174 9.20178 3.61206 9.2721 3.61206 9.35882C3.61206 9.44555 3.54174 9.51586 3.45501 9.51586C3.36829 9.51586 3.29797 9.44555 3.29797 9.35882C3.29797 9.2721 3.36829 9.20178 3.45501 9.20178Z" fill="#594E4B"/>
<path d="M10.3649 9.82995C10.6251 9.82995 10.8361 9.619 10.8361 9.35882C10.8361 9.09864 10.6251 8.8877 10.3649 8.8877C10.1047 8.8877 9.8938 9.09864 9.8938 9.35882C9.8938 9.61904 10.1047 9.82995 10.3649 9.82995ZM10.3649 9.20178C10.4517 9.20178 10.522 9.2721 10.522 9.35882C10.522 9.44555 10.4517 9.51586 10.3649 9.51586C10.2782 9.51586 10.2079 9.44555 10.2079 9.35882C10.2079 9.2721 10.2782 9.20178 10.3649 9.20178Z" fill="#594E4B"/>
</svg>
