<svg width="25" height="18" viewBox="0 0 25 18" fill="none" xmlns="http://www.w3.org/2000/svg">
<path d="M24.6076 7.02949C24.6076 6.50472 24.5202 5.89248 24.5202 5.19278C24.4327 4.49308 24.3453 3.79337 24.2578 3.18113C24.0829 2.48143 23.8205 1.95666 23.2957 1.51934C22.8584 1.08203 22.2461 0.819633 21.6339 0.73217C19.6223 0.469782 16.6485 0.382324 12.6252 0.382324C8.60195 0.382324 5.54074 0.469782 3.61655 0.73217C3.00431 0.819633 2.39208 1.08203 1.95477 1.51934C1.51745 1.95666 1.16759 2.48143 0.992668 3.18113C0.817743 3.79337 0.73029 4.40562 0.73029 5.19278C0.642828 5.89248 0.642822 6.50472 0.642822 7.02949C0.642822 7.55427 0.642822 8.16651 0.642822 9.04114C0.642822 9.91577 0.642822 10.6155 0.642822 11.0528C0.642822 11.5776 0.73029 12.1898 0.73029 12.8895C0.817753 13.5892 0.905206 14.2889 0.992668 14.9012C1.16759 15.6009 1.42999 16.1256 1.95477 16.563C2.39208 17.0003 3.00431 17.2627 3.61655 17.3501C5.6282 17.6125 8.60195 17.7 12.6252 17.7C16.6485 17.7 19.7097 17.6125 21.6339 17.3501C22.2461 17.2627 22.8584 17.0003 23.2957 16.563C23.733 16.1256 24.0829 15.6009 24.2578 14.9012C24.4327 14.2889 24.5202 13.6767 24.5202 12.8895C24.6077 12.1898 24.6076 11.5776 24.6076 11.0528C24.6076 10.528 24.6076 9.91577 24.6076 9.04114C24.6076 8.16651 24.6076 7.46681 24.6076 7.02949ZM17.2608 9.74085L10.3512 14.0265C10.2637 14.114 10.0888 14.2015 9.91389 14.2015C9.73897 14.2015 9.6515 14.2015 9.47658 14.114C9.21419 13.9391 9.03926 13.6767 9.03926 13.3268V4.668C9.03926 4.31815 9.21419 4.05576 9.47658 3.88084C9.73897 3.70591 10.0888 3.70591 10.3512 3.88084L17.2608 8.16651C17.5232 8.34144 17.6981 8.60383 17.6981 8.86622C17.6981 9.12861 17.5232 9.56592 17.2608 9.74085Z" fill="#A09999"/>
</svg>
