<svg width="14" height="11" viewBox="0 0 14 11" fill="none" xmlns="http://www.w3.org/2000/svg">
<path d="M13.051 4.96723L8.30684 0.0650722C8.26327 0.0236266 8.20377 7.17707e-08 8.14144 7.04084e-08L5.56441 1.40858e-08C5.46977 1.20173e-08 5.38402 0.0543765 5.34794 0.137706C5.31185 0.221036 5.33201 0.31642 5.39854 0.380594L9.97728 5.12501L4.98854 9.86941C4.92153 9.93314 4.90139 10.0289 4.93794 10.1123C4.97448 10.1956 5.05977 10.25 5.15441 10.25L7.73144 10.25C7.79375 10.25 7.85327 10.2264 7.8973 10.1849L13.0515 5.28275C13.1428 5.19541 13.1428 5.05459 13.051 4.96723Z" fill="white"/>
<path d="M10.9521 4.91797L-0.00015138 4.91797" stroke="white" stroke-width="2.5"/>
</svg>
