<svg width="32" height="32" viewBox="0 0 32 32" fill="none" xmlns="http://www.w3.org/2000/svg">
<circle cx="16" cy="16" r="16" fill="#4E6297"/>
<path d="M23.1999 11.0551C23.1999 9.85716 22.1429 8.80017 20.9449 8.80017H11.8548C10.6568 8.80017 9.59985 9.85716 9.59985 11.0551V20.1452C9.59985 21.3432 10.6568 22.4002 11.8548 22.4002H16.4351V17.2561H14.7439V15.0012H16.4351V14.0851C16.4351 12.5349 17.5625 11.196 18.9719 11.196H20.804V13.4509H18.9719C18.7605 13.4509 18.5491 13.6623 18.5491 14.0851V15.0012H20.804V17.2561H18.5491V22.4002H20.9449C22.1429 22.4002 23.1999 21.3432 23.1999 20.1452V11.0551Z" fill="white"/>
</svg>
