<svg width="32" height="32" viewBox="0 0 32 32" fill="none" xmlns="http://www.w3.org/2000/svg">
<circle cx="16" cy="16" r="16" fill="url(#paint0_linear)"/>
<path d="M21.2645 9.60022H11.5352C10.4368 9.60022 9.59985 10.4371 9.59985 11.5356V21.2648C9.59985 22.3633 10.4368 23.2002 11.5352 23.2002H21.2645C22.3629 23.2002 23.1999 22.3633 23.1999 21.2648V11.5356C23.1999 10.4371 22.3629 9.60022 21.2645 9.60022ZM16.3999 20.4802C18.6491 20.4802 20.4799 18.7018 20.4799 16.5571C20.4799 16.191 20.4275 15.7725 20.3229 15.4587H21.4737V21.0033C21.4737 21.2648 21.2645 21.5264 20.9506 21.5264H11.8491C11.5875 21.5264 11.326 21.3171 11.326 21.0033V15.4064H12.5291C12.4245 15.7725 12.3722 16.1387 12.3722 16.5048C12.3199 18.7018 14.1506 20.4802 16.3999 20.4802ZM16.3999 18.911C14.9352 18.911 13.7845 17.7602 13.7845 16.3479C13.7845 14.9356 14.9352 13.7848 16.3999 13.7848C17.8645 13.7848 19.0152 14.9356 19.0152 16.3479C19.0152 17.8125 17.8645 18.911 16.3999 18.911ZM21.4214 13.3141C21.4214 13.6279 21.1599 13.8895 20.846 13.8895H19.3814C19.0675 13.8895 18.806 13.6279 18.806 13.3141V11.9018C18.806 11.5879 19.0675 11.3264 19.3814 11.3264H20.846C21.1599 11.3264 21.4214 11.5879 21.4214 11.9018V13.3141Z" fill="white"/>
<defs>
<linearGradient id="paint0_linear" x1="6.8" y1="28.4" x2="28" y2="6.4" gradientUnits="userSpaceOnUse">
<stop stop-color="#EEA054"/>
<stop offset="0.502762" stop-color="#D64763"/>
<stop offset="1" stop-color="#B62A99"/>
</linearGradient>
</defs>
</svg>
