<svg width="32" height="32" viewBox="0 0 32 32" fill="none" xmlns="http://www.w3.org/2000/svg">
<circle cx="16" cy="16" r="16" fill="#7294C7"/>
<path d="M23.8451 20.092C23.8451 20.0256 23.7786 20.0256 23.7786 19.9592C23.513 19.4278 22.9152 18.7637 22.1182 18.0331C21.7197 17.701 21.5204 17.4353 21.3876 17.3025C21.1883 17.0368 21.1883 16.8375 21.2547 16.5719C21.3212 16.3726 21.5868 16.0405 22.0518 15.4427C22.3174 15.1107 22.4503 14.9114 22.6495 14.7122C23.6458 13.3838 24.1107 12.5203 23.9779 12.1218L23.9115 12.0554C23.8451 11.989 23.7786 11.9226 23.6458 11.9226C23.513 11.8562 23.3137 11.8562 23.1145 11.9226H20.5906C20.5241 11.9226 20.5241 11.9226 20.3913 11.9226C20.3249 11.9226 20.2585 11.9226 20.2585 11.9226H20.192H20.1256L20.0592 11.989C19.9928 12.0554 19.9928 12.0554 19.9928 12.1218C19.7271 12.8524 19.395 13.4502 19.0629 14.1144C18.8637 14.4465 18.6644 14.7786 18.4652 15.0442C18.2659 15.3099 18.1331 15.5092 18.0002 15.642C17.8674 15.7748 17.7346 15.8413 17.6681 15.9741C17.6017 16.0405 17.4689 16.1069 17.4689 16.0405C17.4025 16.0405 17.336 16.0405 17.336 15.9741C17.2696 15.9077 17.2032 15.8413 17.1368 15.7748C17.0704 15.7084 17.0704 15.5756 17.004 15.4427C17.004 15.3099 17.004 15.1771 17.004 15.1107C17.004 15.0442 17.004 14.845 17.004 14.7122C17.004 14.5129 17.004 14.3801 17.004 14.3136C17.004 14.1144 17.004 13.8487 17.004 13.583C17.004 13.3174 17.004 13.1181 17.004 12.9853C17.004 12.8524 17.004 12.6532 17.004 12.5203C17.004 12.3211 17.004 12.1882 17.004 12.1218C17.004 12.0554 16.9376 11.9226 16.9376 11.8562C16.8711 11.7897 16.8047 11.7233 16.7383 11.6569C16.6719 11.5905 16.539 11.5905 16.4726 11.5241C16.1405 11.4577 15.742 11.3912 15.2771 11.3912C14.2144 11.3912 13.4838 11.4577 13.2181 11.5905C13.0853 11.6569 12.9525 11.7233 12.886 11.8562C12.7532 11.989 12.7532 12.0554 12.8196 12.0554C13.1517 12.1218 13.4174 12.2547 13.5502 12.4539L13.6166 12.5868C13.6831 12.6532 13.683 12.786 13.7495 12.9853C13.8159 13.1845 13.8159 13.3838 13.8159 13.6495C13.8159 14.048 13.8159 14.4465 13.8159 14.7122C13.8159 15.0442 13.7495 15.2435 13.7495 15.4427C13.7495 15.642 13.6831 15.7748 13.6166 15.8413C13.5502 15.9741 13.5502 16.0405 13.4838 16.0405C13.4838 16.0405 13.4838 16.1069 13.4174 16.1069C13.351 16.1069 13.2845 16.1734 13.1517 16.1734C13.0853 16.1734 12.9525 16.1069 12.886 16.0405C12.7532 15.9741 12.6204 15.8413 12.5539 15.7084C12.4211 15.5756 12.2883 15.3763 12.1554 15.1107C12.0226 14.845 11.8233 14.5793 11.6905 14.1808L11.5577 13.9151C11.4912 13.7823 11.3584 13.5166 11.2256 13.1845C11.0927 12.8524 10.9599 12.5868 10.8271 12.2547C10.7606 12.1218 10.6942 12.0554 10.6278 11.989H10.5614C10.5614 11.989 10.495 11.9226 10.4285 11.9226C10.3621 11.9226 10.2957 11.8562 10.2293 11.8562H7.83823C7.57256 11.8562 7.43973 11.9226 7.37331 11.989L7.30688 12.0554C7.30688 12.0554 7.30688 12.1218 7.30688 12.1883C7.30688 12.2547 7.30689 12.3211 7.37331 12.4539C7.7054 13.2509 8.10391 14.048 8.50242 14.845C8.90093 15.5756 9.29944 16.2398 9.56511 16.7047C9.89721 17.1696 10.1629 17.6346 10.495 18.0331C10.8271 18.4316 11.0263 18.6973 11.0927 18.8301C11.2256 18.9629 11.292 19.0293 11.3584 19.0958L11.5577 19.295C11.6905 19.4278 11.8898 19.6271 12.1554 19.8264C12.4211 20.0256 12.7532 20.2249 13.0853 20.4241C13.4174 20.6234 13.8159 20.7562 14.2144 20.8891C14.6793 21.0219 15.0778 21.0883 15.4763 21.0219H16.4726C16.6719 21.0219 16.8047 20.9555 16.9376 20.8226L17.004 20.7562C17.004 20.6898 17.0704 20.6898 17.0704 20.6234C17.0704 20.557 17.0704 20.4905 17.0704 20.3577C17.0704 20.092 17.0704 19.8928 17.1368 19.6935C17.2032 19.4943 17.2032 19.3614 17.2696 19.2286C17.3361 19.0958 17.4025 19.0293 17.4689 18.9629C17.5353 18.8965 17.6017 18.8301 17.6017 18.8301H17.6681C17.801 18.7637 18.0002 18.8301 18.1331 18.9629C18.3323 19.0958 18.5316 19.295 18.6644 19.4943C18.7973 19.6935 18.9965 19.8928 19.2622 20.1585C19.5279 20.4241 19.7271 20.6234 19.86 20.6898L20.0592 20.8226C20.192 20.8891 20.3249 20.9555 20.5241 21.0219C20.7234 21.0883 20.8562 21.0883 20.9891 21.0883L23.2473 21.0219C23.4466 21.0219 23.6458 20.9555 23.7786 20.8891C23.9115 20.8226 23.9779 20.7562 23.9779 20.6234C23.9779 20.557 23.9779 20.4241 23.9779 20.3577C23.845 20.2249 23.8451 20.1585 23.8451 20.092Z" fill="white"/>
</svg>
