<svg width="32" height="32" viewBox="0 0 32 32" fill="none" xmlns="http://www.w3.org/2000/svg">
<circle cx="16" cy="16" r="16" fill="#F40000"/>
<path d="M22.9706 15.1303C22.9706 14.82 22.9188 14.458 22.9188 14.0443C22.8671 13.6305 22.8154 13.2168 22.7637 12.8548C22.6603 12.441 22.5051 12.1307 22.1948 11.8722C21.9362 11.6136 21.5742 11.4584 21.2122 11.4067C20.0227 11.2515 18.2643 11.1998 15.8853 11.1998C13.5063 11.1998 11.6962 11.2515 10.5584 11.4067C10.1964 11.4584 9.83439 11.6136 9.57581 11.8722C9.31722 12.1307 9.11035 12.441 9.00691 12.8548C8.90348 13.2168 8.85177 13.5788 8.85177 14.0443C8.80005 14.458 8.80005 14.82 8.80005 15.1303C8.80005 15.4406 8.80005 15.8027 8.80005 16.3198C8.80005 16.837 8.80005 17.2507 8.80005 17.5093C8.80005 17.8196 8.85177 18.1817 8.85177 18.5954C8.90349 19.0091 8.9552 19.4229 9.00691 19.7849C9.11035 20.1986 9.2655 20.5089 9.57581 20.7675C9.83439 21.0261 10.1964 21.1812 10.5584 21.233C11.7479 21.3881 13.5063 21.4398 15.8853 21.4398C18.2643 21.4398 20.0744 21.3881 21.2122 21.233C21.5742 21.1812 21.9362 21.0261 22.1948 20.7675C22.4534 20.5089 22.6603 20.1986 22.7637 19.7849C22.8671 19.4229 22.9188 19.0608 22.9188 18.5954C22.9706 18.1817 22.9706 17.8196 22.9706 17.5093C22.9706 17.199 22.9706 16.837 22.9706 16.3198C22.9706 15.8027 22.9706 15.3889 22.9706 15.1303ZM18.6263 16.7336L14.5407 19.2677C14.4889 19.3194 14.3855 19.3711 14.2821 19.3711C14.1786 19.3711 14.1269 19.3711 14.0235 19.3194C13.8683 19.216 13.7649 19.0608 13.7649 18.854V13.734C13.7649 13.5271 13.8683 13.372 14.0235 13.2685C14.1786 13.1651 14.3855 13.1651 14.5407 13.2685L18.6263 15.8027C18.7815 15.9061 18.8849 16.0612 18.8849 16.2164C18.8849 16.3715 18.7815 16.6301 18.6263 16.7336Z" fill="white"/>
</svg>
