<svg width="16" height="14" viewBox="0 0 16 14" fill="none" xmlns="http://www.w3.org/2000/svg">
<path d="M15.9776 7.78339C15.9775 7.78332 15.9775 7.78328 15.9775 7.7832L12.9566 0.198056C12.8925 0.0368914 12.7098 -0.0417868 12.5487 0.0223257C12.5485 0.022365 12.5484 0.0224042 12.5483 0.0224828L0.293041 4.90241C0.243062 4.92401 0.199719 4.95848 0.167407 5.00229C0.0654866 5.05526 0.0010993 5.16008 0 5.27492V13.4411C0 13.6146 0.140631 13.7552 0.314085 13.7552H13.5056C13.6791 13.7552 13.8197 13.6146 13.8197 13.4411V8.98112L15.8022 8.19151C15.9633 8.12724 16.0418 7.94452 15.9776 7.78339ZM13.1916 13.127H0.628169V5.589H13.1916V13.127ZM5.2405 4.9624L10.4995 2.86683C10.9689 3.36018 11.6192 3.64058 12.3002 3.64325L12.8247 4.9624H5.2405ZM13.8197 8.30646V5.27492C13.8197 5.10147 13.6791 4.96083 13.5056 4.96083H13.5006L12.8351 3.28928C12.8277 3.27534 12.8191 3.26207 12.8093 3.2497C12.7756 3.09843 12.6355 2.99521 12.4811 3.00786C11.8475 3.06561 11.2277 2.79872 10.8343 2.29865C10.7365 2.17785 10.5644 2.14781 10.4314 2.2283C10.4165 2.23007 10.4017 2.23281 10.3871 2.23646L3.96657 4.79311C3.88888 4.82358 3.82673 4.884 3.79414 4.96083H1.8443L12.4893 0.722263L15.278 7.72478L13.8197 8.30646Z" fill="#594E4B"/>
<path d="M1.48109 11.0072C2.09089 11.1875 2.56806 11.6641 2.74905 12.2736C2.78874 12.4067 2.91112 12.4979 3.04994 12.4979C3.06624 12.4969 3.08241 12.4944 3.09831 12.4907C3.11241 12.4947 3.12682 12.4976 3.14134 12.4995H10.6794C10.6923 12.4978 10.7051 12.4951 10.7177 12.4916C10.8746 12.5298 11.0328 12.4335 11.071 12.2766C11.0711 12.276 11.0712 12.2755 11.0714 12.2749C11.2519 11.6647 11.7291 11.1875 12.3393 11.0069C12.4873 10.9617 12.5792 10.8142 12.5548 10.6614C12.559 10.6462 12.562 10.6307 12.5639 10.615V8.10228C12.562 8.08654 12.5589 8.07099 12.5545 8.0558C12.5791 7.90295 12.4871 7.75541 12.339 7.7103C11.7288 7.52982 11.2517 7.05237 11.0717 6.44203C11.0262 6.29304 10.8773 6.20085 10.7237 6.22657C10.7091 6.22252 10.6943 6.21958 10.6794 6.21777H3.14134C3.12552 6.21966 3.10986 6.2228 3.09454 6.2272C2.94178 6.20285 2.7944 6.29476 2.74905 6.44266C2.56841 7.05273 2.0912 7.52982 1.48109 7.7103C1.33312 7.75553 1.24117 7.90299 1.26563 8.0558C1.26155 8.07107 1.2586 8.08658 1.25684 8.10228V10.615C1.25864 10.6297 1.26159 10.6443 1.26563 10.6586C1.23988 10.8124 1.33202 10.9615 1.48109 11.0072ZM1.885 8.2298C2.51569 7.97649 3.01555 7.47662 3.26886 6.84594H10.5515C10.805 7.47662 11.3049 7.97649 11.9357 8.2298V10.4874C11.3052 10.741 10.8054 11.2408 10.5519 11.8713H3.26886C3.01528 11.2408 2.51549 10.741 1.885 10.4874V8.2298Z" fill="#594E4B"/>
<path d="M6.90941 11.2417C7.95021 11.2417 8.79392 10.398 8.79392 9.35716C8.79392 8.31637 7.95021 7.47266 6.90941 7.47266C5.86861 7.47266 5.0249 8.31637 5.0249 9.35716C5.02592 10.3975 5.86904 11.2407 6.90941 11.2417ZM6.90941 8.10083C7.60326 8.10083 8.16575 8.66331 8.16575 9.35716C8.16575 10.051 7.60326 10.6135 6.90941 10.6135C6.21556 10.6135 5.65307 10.051 5.65307 9.35716C5.65307 8.66331 6.21556 8.10083 6.90941 8.10083Z" fill="#594E4B"/>
<path d="M3.45501 9.82995C3.71519 9.82995 3.92614 9.619 3.92614 9.35882C3.92614 9.09864 3.71519 8.8877 3.45501 8.8877C3.19483 8.8877 2.98389 9.09864 2.98389 9.35882C2.98389 9.61904 3.19483 9.82995 3.45501 9.82995ZM3.45501 9.20178C3.54174 9.20178 3.61206 9.2721 3.61206 9.35882C3.61206 9.44555 3.54174 9.51586 3.45501 9.51586C3.36829 9.51586 3.29797 9.44555 3.29797 9.35882C3.29797 9.2721 3.36829 9.20178 3.45501 9.20178Z" fill="#594E4B"/>
<path d="M10.3642 9.82995C10.6244 9.82995 10.8353 9.619 10.8353 9.35882C10.8353 9.09864 10.6244 8.8877 10.3642 8.8877C10.104 8.8877 9.89307 9.09864 9.89307 9.35882C9.89307 9.61904 10.104 9.82995 10.3642 9.82995ZM10.3642 9.20178C10.4509 9.20178 10.5212 9.2721 10.5212 9.35882C10.5212 9.44555 10.4509 9.51586 10.3642 9.51586C10.2775 9.51586 10.2072 9.44555 10.2072 9.35882C10.2072 9.2721 10.2775 9.20178 10.3642 9.20178Z" fill="#594E4B"/>
</svg>
