<svg width="40" height="40" viewBox="0 0 40 40" fill="none" xmlns="http://www.w3.org/2000/svg">
<path d="M12.5499 35.8C7.09985 33.2333 3.19985 27.9333 2.59985 21.6667H0.0998535C0.949854 31.9333 9.53319 40 20.0165 40L21.1165 39.95L14.7665 33.6L12.5499 35.8ZM14.0332 24.9333C13.7165 24.9333 13.4165 24.8833 13.1665 24.8C12.8999 24.7 12.6832 24.5833 12.4999 24.4C12.3165 24.2333 12.1665 24.0333 12.0665 23.7833C11.9665 23.55 11.9165 23.2833 11.9165 23H9.74985C9.74985 23.6 9.86652 24.1333 10.0999 24.5833C10.3332 25.0333 10.6499 25.4167 11.0332 25.7333C11.4332 26.0333 11.8832 26.2667 12.3999 26.4167C12.8999 26.5833 13.4332 26.6667 13.9999 26.6667C14.6165 26.6667 15.1999 26.5833 15.7165 26.4167C16.2499 26.25 16.7165 26 17.0999 25.6833C17.4832 25.3667 17.7999 24.9667 18.0165 24.4833C18.2332 24 18.3499 23.4667 18.3499 22.8667C18.3499 22.55 18.3165 22.2333 18.2332 21.9333C18.1499 21.6333 18.0332 21.35 17.8499 21.0833C17.6832 20.8167 17.4499 20.5833 17.1832 20.3667C16.8999 20.15 16.5665 19.9833 16.1665 19.85C16.4999 19.7 16.7832 19.5167 17.0332 19.3C17.2832 19.0833 17.4832 18.85 17.6499 18.6C17.8165 18.35 17.9332 18.1 18.0165 17.8333C18.0999 17.5667 18.1332 17.3 18.1332 17.0333C18.1332 16.4333 18.0332 15.9 17.8332 15.4333C17.6332 14.9667 17.3499 14.5833 16.9832 14.2833C16.6499 13.9667 16.1999 13.7333 15.6999 13.5667C15.1832 13.4167 14.6165 13.3333 13.9999 13.3333C13.3999 13.3333 12.8499 13.4167 12.3332 13.6C11.8332 13.7833 11.3832 14.0333 11.0165 14.35C10.6665 14.6667 10.3832 15.0333 10.1665 15.4667C9.96652 15.9 9.86652 16.3667 9.86652 16.8833H12.0332C12.0332 16.6 12.0832 16.35 12.1832 16.1333C12.2832 15.9167 12.4165 15.7167 12.5999 15.5667C12.7832 15.4167 12.9832 15.2833 13.2332 15.2C13.4832 15.1167 13.7332 15.0667 14.0332 15.0667C14.6999 15.0667 15.1999 15.2333 15.5165 15.5833C15.8332 15.9167 15.9999 16.4 15.9999 17.0167C15.9999 17.3167 15.9499 17.5833 15.8665 17.8333C15.7832 18.0833 15.6332 18.2833 15.4499 18.45C15.2665 18.6167 15.0332 18.75 14.7665 18.85C14.4999 18.95 14.1665 19 13.7999 19H12.5165V20.7167H13.7999C14.1665 20.7167 14.4999 20.75 14.7999 20.8333C15.0999 20.9167 15.3499 21.05 15.5499 21.2167C15.7499 21.4 15.9165 21.6167 16.0332 21.8833C16.1499 22.15 16.1999 22.4667 16.1999 22.8333C16.1999 23.5167 15.9999 24.0333 15.6165 24.3833C15.2332 24.7667 14.6999 24.9333 14.0332 24.9333ZM28.2832 15.0667C27.7499 14.5167 27.1165 14.0833 26.3832 13.7833C25.6499 13.4833 24.8332 13.3333 23.9332 13.3333H19.9999V26.6667H23.8332C24.7499 26.6667 25.5999 26.5167 26.3499 26.2167C27.0999 25.9167 27.7499 25.5 28.2832 24.95C28.8165 24.4 29.2332 23.7333 29.5165 22.9667C29.7999 22.1833 29.9499 21.3167 29.9499 20.35V19.6833C29.9499 18.7167 29.7999 17.85 29.5165 17.0667C29.2332 16.2833 28.8165 15.6167 28.2832 15.0667ZM27.6332 20.3333C27.6332 21.0333 27.5499 21.65 27.3999 22.2167C27.2332 22.7667 26.9999 23.25 26.6832 23.6333C26.3665 24.0167 25.9665 24.3167 25.4999 24.5167C25.0165 24.7167 24.4665 24.8167 23.8499 24.8167H22.3332V15.2H23.9499C25.1499 15.2 26.0665 15.5833 26.6832 16.35C27.3165 17.1167 27.6332 18.2167 27.6332 19.6667V20.3333ZM20.0165 0L18.9165 0.05L25.2665 6.4L27.4832 4.18333C32.9332 6.76667 36.8332 12.05 37.4165 18.3167H39.9165C39.0832 8.06667 30.4999 0 20.0165 0Z" fill="white"/>
</svg>
