<svg width="35" height="26" viewBox="0 0 35 26" fill="none" xmlns="http://www.w3.org/2000/svg">
<path d="M16.9613 25.4222L0.222197 9.42264C0.0806755 9.28737 -3.89951e-07 9.10267 -3.81493e-07 8.90918L-3.18177e-08 0.909545C-1.89759e-08 0.615758 0.185676 0.349584 0.470217 0.237564C0.754758 0.125545 1.08046 0.188134 1.29959 0.394651L17.5 15.8808L33.7004 0.394652C33.918 0.186635 34.2452 0.124114 34.5298 0.237566C34.8143 0.351017 35 0.61576 35 0.909547L35 8.90918C35 9.10261 34.9193 9.28737 34.7778 9.42407L18.0387 25.4236C17.7404 25.7073 17.2596 25.7073 16.9613 25.4222Z" fill="#594E4B"/>
</svg>
