<svg width="30" height="23" viewBox="0 0 30 23" fill="none" xmlns="http://www.w3.org/2000/svg">
<path d="M14.2959 22.0008L0.18728 8.5154C0.0679979 8.40139 -3.28673e-07 8.24572 -3.21544e-07 8.08263L-2.68178e-08 1.34008C-1.5994e-08 1.09246 0.156498 0.868115 0.396326 0.773698C0.636154 0.679282 0.910672 0.732035 1.09537 0.9061L14.75 13.9587L28.4046 0.906101C28.5881 0.730772 28.8638 0.678076 29.1037 0.773699C29.3435 0.869323 29.5 1.09246 29.5 1.34008L29.5 8.08263C29.5 8.24566 29.432 8.40139 29.3127 8.51661L15.204 22.002C14.9526 22.241 14.5474 22.241 14.2959 22.0008Z" fill="#A09999"/>
</svg>
