<svg width="23" height="17" viewBox="0 0 23 17" fill="none" xmlns="http://www.w3.org/2000/svg">
<path d="M11.146 16.5867L0.146015 6.07266C0.0530153 5.98376 -2.56253e-07 5.86239 -2.50695e-07 5.73524L-2.09088e-08 0.478337C-1.24699e-08 0.285277 0.122016 0.110363 0.309 0.0367499C0.495984 -0.036863 0.710015 0.00426705 0.854015 0.139978L11.5 10.3166L22.146 0.139979C22.289 0.0032823 22.504 -0.0378029 22.691 0.0367508C22.878 0.111305 23 0.285278 23 0.478338L23 5.73524C23 5.86235 22.947 5.98377 22.854 6.0736L11.854 16.5876C11.658 16.774 11.342 16.774 11.146 16.5867Z" fill="#E2DFDE"/>
</svg>
