<svg width="30" height="17" viewBox="0 0 30 17" fill="none" xmlns="http://www.w3.org/2000/svg">
<path d="M28.9101 15.0969C28.9101 14.9846 28.7978 14.9846 28.7978 14.8723C28.3485 13.9737 27.3376 12.8504 25.9897 11.6148C25.3157 11.0532 24.9787 10.6039 24.7541 10.3793C24.4171 9.92995 24.4171 9.59299 24.5295 9.14369C24.6418 8.80671 25.0911 8.24507 25.8773 7.23415C26.3266 6.67252 26.5513 6.33556 26.8883 5.99858C28.5731 3.75208 29.3594 2.29184 29.1348 1.61789L29.0225 1.50558C28.9101 1.39325 28.7978 1.28093 28.5731 1.28093C28.3485 1.1686 28.0115 1.1686 27.6745 1.28093H23.4062C23.2939 1.28093 23.2939 1.28093 23.0692 1.28093C22.9569 1.28093 22.8446 1.28093 22.8446 1.28093H22.7322H22.6199L22.5076 1.39324C22.3953 1.50557 22.3953 1.50557 22.3953 1.61789C21.946 2.85347 21.3843 3.86439 20.8227 4.98764C20.4857 5.54927 20.1488 6.11091 19.8118 6.56021C19.4748 7.00951 19.2501 7.34647 19.0255 7.57113C18.8008 7.79578 18.5762 7.9081 18.4639 8.13275C18.3515 8.24508 18.1269 8.35741 18.1269 8.24508C18.0146 8.24508 17.9022 8.24508 17.9022 8.13275C17.7899 8.02043 17.6776 7.9081 17.5653 7.79577C17.453 7.68345 17.4529 7.4588 17.3406 7.23415C17.3406 7.0095 17.3406 6.78485 17.3406 6.67252C17.3406 6.5602 17.3406 6.22323 17.3406 5.99858C17.3406 5.6616 17.3406 5.43695 17.3406 5.32462C17.3406 4.98765 17.3406 4.53836 17.3406 4.08906C17.3406 3.63976 17.3406 3.30277 17.3406 3.07812C17.3406 2.85347 17.3406 2.5165 17.3406 2.29185C17.3406 1.95487 17.3406 1.73022 17.3406 1.61789C17.3406 1.50557 17.2283 1.28092 17.2283 1.1686C17.116 1.05627 17.0037 0.943943 16.8913 0.831618C16.779 0.719293 16.5544 0.719296 16.442 0.606971C15.8804 0.494646 15.2065 0.382324 14.4202 0.382324C12.623 0.382324 11.3874 0.494653 10.9381 0.719303C10.7135 0.831628 10.4888 0.943946 10.3765 1.1686C10.1518 1.39325 10.1518 1.50558 10.2642 1.50558C10.8258 1.6179 11.2751 1.84254 11.4997 2.17952L11.6121 2.40418C11.7244 2.51651 11.7244 2.74114 11.8367 3.07812C11.949 3.4151 11.949 3.75207 11.949 4.20137C11.949 4.87532 11.949 5.54928 11.949 5.99858C11.949 6.56021 11.8367 6.89717 11.8367 7.23415C11.8367 7.57112 11.7244 7.79578 11.6121 7.9081C11.4997 8.13275 11.4997 8.24508 11.3874 8.24508C11.3874 8.24508 11.3874 8.3574 11.2751 8.3574C11.1627 8.3574 11.0504 8.46973 10.8258 8.46973C10.7135 8.46973 10.4888 8.35741 10.3765 8.24508C10.1518 8.13276 9.92718 7.90811 9.81486 7.68346C9.59021 7.45881 9.36555 7.12182 9.1409 6.67252C8.91625 6.22322 8.57926 5.77393 8.35461 5.09998L8.12998 4.65068C8.01766 4.42603 7.79301 3.97672 7.56836 3.4151C7.3437 2.85347 7.11905 2.40418 6.8944 1.84255C6.78207 1.6179 6.66976 1.50557 6.55744 1.39324H6.4451C6.4451 1.39324 6.33277 1.28093 6.22044 1.28093C6.10811 1.28093 5.9958 1.1686 5.88348 1.1686H1.83977C1.39047 1.1686 1.16582 1.28092 1.05349 1.39324L0.941162 1.50558C0.941162 1.50558 0.941162 1.6179 0.941162 1.73022C0.941162 1.84255 0.941169 1.95487 1.05349 2.17952C1.61512 3.52742 2.28907 4.87533 2.96302 6.22323C3.63697 7.4588 4.31093 8.58206 4.76023 9.36833C5.32185 10.1546 5.77115 10.9409 6.33277 11.6148C6.8944 12.2888 7.23137 12.7381 7.34369 12.9627C7.56834 13.1874 7.68066 13.2997 7.79298 13.412L8.12998 13.749C8.35463 13.9737 8.6916 14.3106 9.1409 14.6476C9.5902 14.9846 10.1518 15.3216 10.7134 15.6585C11.2751 15.9955 11.949 16.2202 12.623 16.4448C13.4093 16.6695 14.0832 16.7818 14.7572 16.6695H16.442C16.779 16.6695 17.0037 16.5571 17.2283 16.3325L17.3406 16.2202C17.3406 16.1078 17.453 16.1078 17.453 15.9955C17.453 15.8832 17.453 15.7709 17.453 15.5462C17.453 15.0969 17.453 14.7599 17.5653 14.423C17.6776 14.086 17.6776 13.8613 17.7899 13.6367C17.9023 13.412 18.0146 13.2997 18.1269 13.1874C18.2392 13.0751 18.3516 12.9627 18.3516 12.9627H18.4639C18.6885 12.8504 19.0255 12.9627 19.2502 13.1874C19.5871 13.412 19.9241 13.749 20.1488 14.086C20.3734 14.423 20.7104 14.7599 21.1597 15.2092C21.609 15.6585 21.946 15.9955 22.1706 16.1078L22.5076 16.3325C22.7322 16.4448 22.9569 16.5571 23.2939 16.6695C23.6308 16.7818 23.8555 16.7818 24.0801 16.7818L27.8992 16.6695C28.2362 16.6695 28.5731 16.5571 28.7978 16.4448C29.0224 16.3325 29.1348 16.2202 29.1348 15.9955C29.1348 15.8832 29.1348 15.6585 29.1348 15.5462C28.9101 15.3216 28.9101 15.2092 28.9101 15.0969Z" fill="#A09999"/>
</svg>
